<svg xmlns="http://www.w3.org/2000/svg" width="566.929" height="137.354" viewBox="0 0 566.929 137.354">
  <g id="Group_1" data-name="Group 1" transform="translate(-143.479 -354.543)">
    <path id="Path_1" data-name="Path 1" d="M192.945,386.87H231.69c20.8,0,28.632,10.529,27.422,26.024-1.994,25.543-17.438,39.667-37.922,39.667H210.848c-2.807,0-4.7,1.856-5.46,6.9l-4.437,29.283c-.288,1.9-1.289,3.019-2.792,3.154H173.865c-2.286,0-3.1-1.749-2.5-5.536L186.2,392.426C186.795,388.662,188.854,386.87,192.945,386.87Z" fill="#0094cb" fill-rule="evenodd"/>
    <path id="Path_2" data-name="Path 2" d="M361.135,385.134c13.074,0,25.133,7.088,23.482,24.764-1.956,20.954-13.25,32.623-31.011,32.671H338.112c-2.234,0-3.308,1.816-3.894,5.554l-2.99,19.071c-.451,2.88-1.926,4.3-4.114,4.3H312.685c-2.3,0-3.105-1.47-2.592-4.759l11.928-76.445c.587-3.759,2.025-5.157,4.574-5.157Zm-23.5,40.92,11.754,0c7.347-.277,12.234-5.365,12.724-14.548.3-5.671-3.525-9.727-9.622-9.7l-11.065.05-3.791,24.195Zm86.211,39.581c1.317-1.2,2.663-1.822,2.467-.343l-.468,3.543c-.244,1.845.491,2.833,2.214,2.833h12.819c2.156,0,3.21-.874,3.742-4.212l7.9-49.582c.4-2.491-.205-3.713-2.1-3.713H436.324c-1.272,0-1.888.714-2.22,2.655l-.523,3.052c-.273,1.593-1,1.868-1.679.266-2.393-5.664-8.492-8.2-17.046-8.027-19.774.407-33.1,15.417-34.53,34.658-1.1,14.884,9.565,26.572,23.619,26.571,10.2,0,14.76-3.04,19.9-7.7Zm-10.727-7.617c-8.511,0-14.444-6.788-13.206-15.111s9.19-15.111,17.7-15.111,14.443,6.788,13.205,15.111-9.189,15.111-17.7,15.111ZM477.619,414H464.668c-2.684,0-3.774,1.964-2.921,4.462l16.138,47.264-15.9,22.479c-1.327,1.876-.3,3.592,1.569,3.592h14.612a4.473,4.473,0,0,0,4.343-2.131l49.636-71.2c1.53-2.194.808-4.489-1.7-4.491l-13.815-.015c-2.371,0-3.324.936-4.684,2.91l-20.705,30.038-9.21-30.09C481.463,414.961,480.109,414,477.619,414Z" fill="#003082" fill-rule="evenodd"/>
    <path id="Path_3" data-name="Path 3" d="M583.8,385.134c13.075,0,25.134,7.088,23.483,24.764-1.957,20.954-13.25,32.623-31.012,32.671H560.779c-2.234,0-3.307,1.816-3.893,5.554L553.9,467.194c-.451,2.88-1.926,4.3-4.114,4.3H535.352c-2.3,0-3.1-1.47-2.592-4.759l11.928-76.445c.587-3.759,2.025-5.157,4.574-5.157Zm-23.5,40.92,11.754,0c7.348-.277,12.234-5.365,12.725-14.548.3-5.671-3.526-9.727-9.623-9.7l-11.065.05L560.3,426.054Zm86.211,39.581c1.317-1.2,2.663-1.822,2.468-.343l-.469,3.543c-.244,1.845.491,2.833,2.215,2.833h12.818c2.156,0,3.21-.874,3.742-4.212l7.9-49.582c.4-2.491-.206-3.713-2.1-3.713H658.991c-1.272,0-1.887.714-2.22,2.655l-.523,3.052c-.272,1.593-1,1.868-1.678.266-2.394-5.664-8.493-8.2-17.047-8.027-19.774.407-33.1,15.417-34.53,34.658-1.1,14.884,9.565,26.572,23.619,26.571,10.2,0,14.761-3.04,19.9-7.7Zm-10.727-7.617c-8.511,0-14.443-6.788-13.2-15.111s9.19-15.111,17.7-15.111,14.443,6.788,13.2,15.111-9.189,15.111-17.7,15.111Zm59.13,13.739h-14.8a1.746,1.746,0,0,1-1.813-2.047l13.011-82.355a2.553,2.553,0,0,1,2.461-2.047H708.57a1.746,1.746,0,0,1,1.814,2.047L697.373,469.71A2.553,2.553,0,0,1,694.912,471.757Z" fill="#0094cb" fill-rule="evenodd"/>
    <path id="Path_4" data-name="Path 4" d="M168.723,354.543h38.783c10.924,0,23.878.355,32.545,8,5.789,5.106,8.827,13.241,8.126,21.974-2.378,29.615-20.092,46.2-43.846,46.2H185.2c-3.256,0-5.414,2.157-6.332,8l-5.337,33.955c-.347,2.2-1.3,3.5-3.045,3.657H146.6c-2.651,0-3.594-2.027-2.9-6.42l17.2-108.921C161.591,356.622,163.979,354.543,168.723,354.543Z" fill="#003082" fill-rule="evenodd"/>
    <path id="Path_5" data-name="Path 5" d="M179.427,435.293l6.773-42.867c.6-3.764,2.654-5.556,6.745-5.556H231.69c6.414,0,11.6,1,15.657,2.846-3.894,26.356-20.94,41-43.263,41H184.956C182.438,430.716,180.557,432,179.427,435.293Z" fill="#00236d" fill-rule="evenodd"/>
  </g>
</svg>
